    <svg
      width="145"
      height="40"
      viewBox="0 0 145 40"
      fill="none"
      xmlns="http://www.w3.org/2000/svg"
    >
      <path
        d="M31.7004 26.2499C30.0141 25.2845 29.2023 25.4912 24.3938 27.0181L19.4621 20.2788C23.307 20.3186 29.5057 19.8159 30.8108 14.7514C31.3096 12.811 31.0004 11.0489 29.925 9.6604C28.5004 7.82239 25.8146 6.81519 22.3586 6.81519C20.2721 6.81519 9.79407 7.0466 9.34832 7.05798L9.28952 7.17748V9.21844L16.1067 18.5432H9.29332V20.2275H16.9033H17.3453L22.7019 27.553C16.1749 29.594 13.0281 30.2484 11.818 30.4514C11.392 30.53 10.9571 30.5472 10.5262 30.5026C8.94241 30.3129 8.94241 29.4973 8.94241 29.2071C8.94241 28.4275 9.85857 28.069 9.89082 28.0557L9.32178 26.4737C8.56305 26.7507 7.26562 27.6384 7.26562 29.2071C7.26562 29.8842 7.52928 32.0523 10.8696 32.2135C11.1728 32.2262 11.4766 32.2084 11.7763 32.1604C12.9599 31.9878 16.2982 31.3429 23.802 28.9738C24.7504 30.0303 27.2277 32.4506 29.7429 32.4506C30.2433 32.4525 30.7387 32.3504 31.1977 32.1509C32.4458 31.6065 33.2008 30.569 33.269 29.3057C33.3373 28.0424 32.7 26.8304 31.7042 26.2556L31.7004 26.2499ZM11.0004 8.70062C14.115 8.63233 20.7842 8.49387 22.3605 8.49387C25.2835 8.49387 27.4989 9.27345 28.5991 10.6904C29.3445 11.6559 29.5475 12.9134 29.1833 14.3304C28.0452 18.7442 21.579 18.6684 18.2159 18.5697L11.0004 8.70062ZM30.5206 30.6069C28.9936 31.2727 26.8711 29.668 25.5888 28.4066C29.6063 27.1395 29.8927 27.1528 30.8658 27.7105C31.3172 27.9684 31.6245 28.5982 31.5866 29.209C31.5619 29.6452 31.359 30.2427 30.5244 30.6069"
        fill="#BA967D"
      />
      <path
        d="M19.9999 40C16.0443 40 12.1775 38.827 8.88854 36.6294C5.59956 34.4318 3.03611 31.3082 1.52235 27.6537C0.00860181 23.9992 -0.387461 19.9778 0.384243 16.0982C1.15595 12.2186 3.06077 8.65493 5.85782 5.85788C8.65487 3.06083 12.2185 1.15601 16.0981 0.384303C19.9777 -0.387401 23.9991 0.00866718 27.6536 1.52242C31.3081 3.03617 34.4317 5.59962 36.6293 8.8886C38.827 12.1776 39.9999 16.0444 39.9999 20C39.9939 25.3025 37.8848 30.3861 34.1354 34.1355C30.386 37.8849 25.3024 39.994 19.9999 40ZM19.9999 1.76215C16.3928 1.76215 12.8667 2.83178 9.86753 4.83578C6.86833 6.83978 4.53075 9.68815 3.15037 13.0207C1.76999 16.3532 1.40881 20.0202 2.11253 23.558C2.81624 27.0958 4.55322 30.3455 7.10383 32.8961C9.65444 35.4467 12.9041 37.1837 16.4419 37.8874C19.9797 38.5911 23.6467 38.23 26.9793 36.8496C30.3118 35.4692 33.1602 33.1316 35.1642 30.1324C37.1682 27.1332 38.2378 23.6071 38.2378 20C38.2323 15.1647 36.309 10.5291 32.8899 7.10999C29.4709 3.69093 24.8352 1.76767 19.9999 1.76215Z"
        fill="#BA967D"
      />
      <path
        d="M66.272 13H60V27H62.3053V21.9H66.272C69.8822 21.9 71.9387 19.9767 71.9387 17.3867C71.9387 14.7967 69.8822 13 66.272 13ZM65.9744 20.7033H62.3053V14.2033H65.9744C68.4142 14.2033 69.6283 15.4383 69.6283 17.3933C69.6283 19.3483 68.4075 20.7033 65.9744 20.7033Z"
        fill="#333333"
      />
      <path
        d="M81.4543 13L75.2159 27H77.7214L79.5508 22.5H86.139L87.9584 27H90.4621L84.2506 13H81.4543ZM80.0351 21.3L82.8483 14.3633L85.6564 21.3H80.0351Z"
        fill="#333333"
      />
      <path
        d="M121.446 13H115.173V27H117.479V21.9H121.446C125.056 21.9 127.117 19.9767 127.117 17.3867C127.117 14.7967 125.056 13 121.446 13ZM121.148 20.7033H117.479V14.2033H121.148C123.588 14.2033 124.802 15.4383 124.802 17.3933C124.802 19.3483 123.588 20.71 121.148 20.71"
        fill="#333333"
      />
      <path
        d="M103.046 21.215C103.046 21.215 102.754 21.2033 102.609 21.2033H102.239V21.105H103.013C106.346 21.105 107.687 19.285 107.687 17.17C107.687 14.7583 105.557 13.0033 101.97 13.0033H95.7286V27H98.0339V21.895H101.466C102.893 21.895 105.214 21.7617 105.214 24.2817V27H107.728V24.8333C107.728 22.24 106.383 21.2217 103.053 21.2217L103.046 21.215ZM101.767 20.69H98.0339V14.1967H101.72C104.259 14.1967 105.342 15.53 105.342 17.3283C105.342 19.3633 104.188 20.6833 101.767 20.6833"
        fill="#333333"
      />
      <path
        d="M142.496 27H145L138.789 13H135.992L129.754 27H132.259L134.089 22.5H140.677L142.496 27ZM134.571 21.3L137.386 14.3633L140.194 21.3H134.571Z"
        fill="#333333"
      />
    </svg>